<svg width="69" height="41" viewBox="0 0 69 41" fill="none" xmlns="http://www.w3.org/2000/svg">
<path d="M8.496 32.468C6.432 32.468 4.848 31.856 3.744 30.632C2.64 29.384 2.088 27.632 2.088 25.376V14.648H7.668V24.152C7.668 26.6 8.628 27.824 10.548 27.824C12.78 27.824 13.896 26.54 13.896 23.972V14.648H19.368V32H13.896V29.516C12.864 31.484 11.064 32.468 8.496 32.468ZM23.9243 32V14.648H29.4323V18.284C29.7203 17.036 30.3083 16.076 31.1963 15.404C32.1083 14.708 33.1163 14.36 34.2203 14.36C34.7963 14.36 35.2763 14.408 35.6603 14.504V19.616C35.0123 19.544 34.4603 19.508 34.0043 19.508C30.9563 19.508 29.4323 21.44 29.4323 25.304V32H23.9243ZM43.9116 12.128C43.2636 12.776 42.4476 13.1 41.4636 13.1C40.4796 13.1 39.6636 12.776 39.0156 12.128C38.3916 11.48 38.0796 10.688 38.0796 9.752C38.0796 8.792 38.3916 7.988 39.0156 7.34C39.6636 6.692 40.4796 6.368 41.4636 6.368C42.4476 6.368 43.2636 6.704 43.9116 7.376C44.5596 8.024 44.8836 8.816 44.8836 9.752C44.8836 10.688 44.5596 11.48 43.9116 12.128ZM38.5836 39.416C37.5516 39.416 36.6756 39.296 35.9556 39.056V34.808C36.3636 34.904 36.8076 34.952 37.2876 34.952C38.2236 34.952 38.6916 34.4 38.6916 33.296V14.648H44.1996V33.98C44.1996 35.78 43.7196 37.136 42.7596 38.048C41.7996 38.96 40.4076 39.416 38.5836 39.416ZM55.6566 32.468C53.1366 32.468 51.1446 31.616 49.6806 29.912C48.2166 28.208 47.4846 26.012 47.4846 23.324C47.4846 20.684 48.2406 18.5 49.7526 16.772C51.2646 15.044 53.2566 14.18 55.7286 14.18C56.9526 14.18 58.0446 14.444 59.0046 14.972C59.9646 15.5 60.6846 16.22 61.1646 17.132V14.648H66.6366V32H61.1646V29.552C60.6846 30.416 59.9406 31.124 58.9326 31.676C57.9486 32.204 56.8566 32.468 55.6566 32.468ZM57.2406 27.896C58.5606 27.896 59.5806 27.464 60.3006 26.6C61.0206 25.736 61.3806 24.644 61.3806 23.324C61.3806 22.028 61.0206 20.948 60.3006 20.084C59.5806 19.22 58.5606 18.788 57.2406 18.788C55.9926 18.788 54.9846 19.208 54.2166 20.048C53.4726 20.888 53.1006 21.98 53.1006 23.324C53.1006 24.668 53.4726 25.772 54.2166 26.636C54.9846 27.476 55.9926 27.896 57.2406 27.896Z" fill="url(#paint0_linear_121_226)"/>
<defs>
<linearGradient id="paint0_linear_121_226" x1="49.5" y1="-24.5" x2="49.5" y2="38" gradientUnits="userSpaceOnUse">
<stop offset="0.342953" stop-color="#44009B"/>
<stop offset="1" stop-color="#0066FF"/>
</linearGradient>
</defs>
</svg>
